<svg id="Capa_3" data-name="Capa 3" xmlns="http://www.w3.org/2000/svg" viewBox="0 0 281 281"><defs><style>.cls-1{fill:none;stroke:#bca177;stroke-miterlimit:10;stroke-width:7px;}.cls-2{fill:#bca177;}</style></defs><title>chem</title><path class="cls-1" d="M324.15,162.62a137,137,0,1,1-137-137A137,137,0,0,1,324.15,162.62Z" transform="translate(-46.65 -22.12)"/><path class="cls-2" d="M264.65,249.12c-7.87,6.58-34,26.7-73,28-44,1.46-73.8-22-81-28-5.69-5-39.68-35.47-41-86-1.12-42.84,22-71.86,28-79l55.5,54.5-39,48c-.92,1.8-10.58,21.53,0,41,7.55,13.87,20.6,18.82,24,20l90,2a47.76,47.76,0,0,0,24-12Q258.4,243.36,264.65,249.12Z" transform="translate(-46.65 -22.12)"/><path class="cls-2" d="M261.15,226.62l14,11a125.91,125.91,0,0,0,27-65c5-46.88-18.89-80.82-25-89-5-5.67-34.61-38.13-84-40-46.1-1.75-76.73,24.4-83,30l48,48a2.21,2.21,0,0,0,2,0,2,2,0,0,0,1-2v-36c-5.07-.73-8.77-4.65-9-9-.24-4.68,3.64-7.73,4-8l59,1a7.38,7.38,0,0,1,3,14h-6l1,39c-.23,2.08-.55,7.58,3,12a14.52,14.52,0,0,0,2,2q17.5,21.49,35,43c1.75,1.62,8.29,19.72,8,22a89.23,89.23,0,0,1,1,13A91.28,91.28,0,0,1,261.15,226.62Z" transform="translate(-46.65 -22.12)"/><path class="cls-2" d="M129.15,193.62h117c.57,1.18,7.51,16.35-1,30a30.12,30.12,0,0,1-15,12h-85c-10.65-3.87-18.39-12.64-20-23A28.77,28.77,0,0,1,129.15,193.62Z" transform="translate(-46.65 -22.12)"/><path class="cls-2" d="M141.15,178.62h92l-30-38a23.16,23.16,0,0,1-4-16v-42h-23v41a31.49,31.49,0,0,1-3,12,31.13,31.13,0,0,1-3,5Z" transform="translate(-46.65 -22.12)"/></svg>