<svg id="Capa_3" data-name="Capa 3" xmlns="http://www.w3.org/2000/svg" viewBox="0 0 266 266"><defs><style>.cls-1{fill:none;stroke:#bca177;stroke-miterlimit:10;stroke-width:11px;}.cls-2{fill:#bca177;}</style></defs><title>tacc</title><path class="cls-1" d="M314.65,181.62a127.5,127.5,0,1,1-127.5-127.5A127.5,127.5,0,0,1,314.65,181.62Z" transform="translate(-54.15 -48.62)"/><line class="cls-1" x1="76.5" y1="189.5" x2="43.5" y2="223.5"/><line class="cls-1" x1="179.5" y1="86.5" x2="223.65" y2="43.35"/><path class="cls-2" d="M187.65,142.12a29.4,29.4,0,0,0,11.5-11.5c7.1-13.24,2.61-32.29-11.5-47.5-15.53,15.95-20.09,35.91-12.5,48.5C176.74,134.24,180.19,138.77,187.65,142.12Z" transform="translate(-54.15 -48.62)"/><path class="cls-2" d="M181.15,261.62l1,23h10v-23a31.26,31.26,0,0,0,18,1c13.61-3.56,23.95-17.44,26-35-17.26-5.05-34.15-1.71-43,9a29.06,29.06,0,0,0-6,13,32.87,32.87,0,0,0-7-12c-14.57-15.84-39.83-10.5-42-10,3,17.3,12.94,30.74,26,34a27.87,27.87,0,0,0,13,0Z" transform="translate(-54.15 -48.62)"/><path class="cls-2" d="M187.15,216.62c3.5,2.53,10.46,6.66,19,6,14.07-1.1,27-14.77,30-34-16.25-5.48-32.65-3-42,7a29.73,29.73,0,0,0-7,13,23.67,23.67,0,0,0-3-9c-7.05-12.1-25.28-17.14-46-14,5.13,22.6,19.89,37.26,34,37C175,222.56,180.57,221.86,187.15,216.62Z" transform="translate(-54.15 -48.62)"/><path class="cls-2" d="M187.15,176.62c3.75,1.81,11.7,4.92,21,3,14-2.9,25.2-16,28-33-16.06-6.93-32.85-4.82-42,5a28.55,28.55,0,0,0-7,15,28.22,28.22,0,0,0-6-12c-9-10.42-25.83-13.31-43-8,3.29,17.29,14.87,30.38,29,33A33.06,33.06,0,0,0,187.15,176.62Z" transform="translate(-54.15 -48.62)"/></svg>