<?xml version="1.0" encoding="utf-8"?>
<!-- Generator: Adobe Illustrator 22.0.0, SVG Export Plug-In . SVG Version: 6.00 Build 0)  -->
<svg version="1.1" id="Capa_2" xmlns="http://www.w3.org/2000/svg" xmlns:xlink="http://www.w3.org/1999/xlink" x="0px" y="0px"
	 viewBox="0 0 356.5 363.5" style="enable-background:new 0 0 356.5 363.5;" xml:space="preserve">
<style type="text/css">
	.st0{fill:#BCA177;}
</style>
<path class="st0" d="M254.7,202.1c-0.2-13.9,1.3-34.1,9-57c5.5-16.4,12.7-29.4,19-39c-15.4-5-36.6-10-62-11
	c-32.6-1.3-59.3,4.6-77,10c-3.6,1.5-56.7,25.1-66,82c-7.1,43.6,16.5,76.1,21,82c1.1-13.4,6.9-64,49-103c25.1-23.2,52.2-32.3,67-36
	c-17.4,11-45.5,32.1-67,68c-40.2,67-27.9,135.8-24,154c-14.4-5-61.4-23.5-93-74c-27.1-43.3-27.6-85.8-27-102c0.8-13.3,5.8-71,54-118
	c48.5-47.3,106.7-50.6,120-51c13.2,0.4,77.7,3.5,127,56c34.9,37.2,43.5,79.2,46,96c1,7.4,11.6,94.8-56,156
	c-61.3,55.5-137.2,44.6-147,43l-11-64c6.2,1,45.4,6.6,80-21C250.1,246.4,254.1,208.6,254.7,202.1z"/>
</svg>
